Coordinates
version=1
nRows=14
nColumns=33
inDegrees=yes

Units are S.I. units (second, meters, Newtons, ...)
Angles are in degrees.

endheader
time	ground_thorax_rot_x	ground_thorax_rot_y	ground_thorax_rot_z	ground_thorax_tx	ground_thorax_ty	ground_thorax_tz	clav_prot_r	clav_elev_r	scapula_abduction_r	scapula_elevation_r	scapula_upward_rot_r	scapula_winging_r	shoulder_elv_r	plane_of_elev_r	axial_rot_r	elbow_flexion_r	pro_sup_r	wrist_flex_r	wrist_dev_r	clav_prot_l	clav_elev_l	scapula_abduction_l	scapula_elevation_l	scapula_upward_rot_l	scapula_winging_l	shoulder_elv_l	plane_of_elev_l	axial_rot_l	elbow_flexion_l	pro_sup_l	wrist_flex_l	wrist_dev_l
      4.49000000	    -30.87628187	    -27.48765710	     35.97942834	    -41.07982047	    780.56185469	     12.10232017	     10.94213932	    -45.00000000	     41.47257036	    -45.00000000	    -45.00000000	  -3693.14550538	  -2991.51402912	    148.26751933	    179.99999979	   1441.34791381	     55.49665416	     21.14409681	     16.13757802	     16.30611699	     38.55033180	    -36.80656848	    -45.00000000	    -45.00000000	   1515.61830656	  -4614.25881602	     26.07855622	     -8.95846888	  -1075.34887769	     41.25644245	      9.61822808	    -21.87089297
      4.50000000	    -31.11545776	    -27.41433705	     35.76762943	    -42.34817015	    781.46139645	     12.37215497	     10.70841338	    -45.00000000	     41.43858810	    -45.00000000	    -45.00000000	  -3693.20680124	  -2991.32514719	    148.17249913	    179.99999979	   1441.55528296	     55.26166443	     21.21851636	     16.31046166	     16.31854022	     38.76615923	    -37.04106227	    -45.00000000	    -45.00000000	   1516.03817993	  -4614.21233185	     26.37306237	     -8.74146349	  -1075.16455788	     41.15096638	      9.61324166	    -21.82206087
      4.51000000	    -31.36735101	    -27.29417132	     35.46218023	    -43.89635650	    782.40663034	     12.61490016	     10.72778366	    -45.00000000	     41.51077429	    -45.00000000	    -45.00000000	  -3693.32489610	  -2991.10612616	    148.03857957	    179.99999979	   1441.76423040	     54.90184605	     21.45571589	     16.29738462	     16.37351495	     38.78063224	    -37.25193739	    -45.00000000	    -45.00000000	   1516.30362302	  -4614.02925854	     26.56970108	     -8.26573107	  -1075.02884625	     40.97534866	      9.51600748	    -21.90505488
      4.52000000	    -31.66615898	    -27.13719464	     35.12476941	    -45.70527722	    783.41483878	     12.81267186	     10.72512496	    -45.00000000	     41.58245383	    -45.00000000	    -45.00000000	  -3693.46165987	  -2990.89187401	    147.88948905	    179.99999979	   1442.04780761	     54.52437157	     21.70274811	     16.29529691	     16.42162215	     38.80603138	    -37.51633284	    -45.00000000	    -45.00000000	   1516.63241946	  -4613.85030107	     26.78132153	     -7.65170490	  -1074.88707899	     40.73956966	      9.47259017	    -21.96386192
      4.53000000	    -31.98965873	    -26.96026631	     34.73194477	    -47.76739080	    784.49731157	     12.95997889	     10.75557154	    -45.00000000	     41.67405720	    -45.00000000	    -45.00000000	  -3693.54903372	  -2990.62635571	    147.81528625	    179.99999979	   1442.42192863	     54.12300841	     21.94393909	     16.24872940	     16.49360190	     39.01222341	    -37.78921850	    -45.00000000	    -45.00000000	   1516.88032547	  -4613.60467262	     26.87654927	     -6.78698247	  -1074.71779453	     40.38929500	      9.43678140	    -21.99972109
      4.54000000	    -32.28852590	    -26.79052027	     34.37455818	    -50.09836497	    785.66338335	     13.04706861	     10.80336683	    -45.00000000	     41.84003155	    -45.00000000	    -45.00000000	  -3693.70688979	  -2990.36219977	    147.71805069	    179.99999979	   1442.78364893	     53.71062694	     22.17660718	     16.19452841	     16.60930912	     39.01924963	    -38.10951736	    -45.00000000	    -45.00000000	   1517.14457544	  -4613.37743205	     26.93848157	     -5.75184441	  -1074.64475212	     39.90315332	      9.44386769	    -22.00299427
      4.55000000	    -32.84615633	    -26.33358136	     33.52656510	    -52.68572002	    786.92563853	     13.07530586	     10.82661994	    -45.00000000	     42.00086422	    -45.00000000	    -45.00000000	  -3693.76904657	  -2990.04275192	    147.50164496	    179.99999979	   1443.32246905	     53.32302564	     22.50440981	     16.07625123	     16.61073722	     39.09673570	    -38.61376603	    -45.00000000	    -45.00000000	   1517.60548786	  -4613.19643282	     27.22091908	     -4.98324986	  -1074.47824097	     39.37846733	      9.48432008	    -22.05182293
      4.56000000	    -33.22811998	    -26.05625761	     32.99252119	    -55.52789928	    788.29840666	     13.04802766	     10.88161464	    -45.00000000	     42.13870810	    -45.00000000	    -45.00000000	  -3693.90778789	  -2989.71623541	    147.38959603	    179.99999979	   1443.77138587	     52.96889886	     22.76562044	     15.94412820	     16.75974645	     39.17302149	    -38.87421098	    -45.00000000	    -45.00000000	   1517.88712220	  -4612.85645410	     27.36563424	     -3.97051829	  -1074.35548152	     38.67404090	      9.50206782	    -22.03275595
      4.57000000	    -33.63684664	    -25.74645138	     32.35992679	    -58.60378330	    789.79936369	     12.97823341	     10.92692951	    -45.00000000	     42.28517688	    -45.00000000	    -45.00000000	  -3694.01119059	  -2989.34200750	    147.25167826	    179.99999979	   1444.26017222	     52.62301799	     23.02800071	     15.76582891	     16.92028945	     39.32955179	    -39.13143070	    -45.00000000	    -45.00000000	   1518.17138898	  -4612.50288930	     27.45129661	     -3.12839992	  -1074.21332554	     37.87447778	      9.50740349	    -21.99766217
      4.58000000	    -34.07712422	    -25.33903224	     31.71711649	    -61.91423851	    791.43605143	     12.87107659	     11.00157911	    -45.00000000	     42.46506741	    -45.00000000	    -45.00000000	  -3694.31126259	  -2989.03801244	    147.00750097	    179.99999979	   1444.70291995	     52.34586622	     23.33974678	     15.60558965	     17.04718931	     39.07617730	    -39.32802481	    -45.00000000	    -45.00000000	   1518.53730776	  -4612.15134066	     27.78267295	     -2.19912630	  -1074.08996524	     36.93008767	      9.57433783	    -21.98022211
      4.59000000	    -34.71615173	    -24.73079519	     30.68900876	    -65.43602787	    793.21324319	     12.73969077	     11.00463211	    -45.00000000	     42.60319151	    -45.00000000	    -45.00000000	  -3694.40936128	  -2988.65070668	    146.76199912	    179.99999979	   1445.24617735	     52.08424495	     23.64526202	     15.33710348	     17.10105254	     39.19337867	    -39.57496862	    -45.00000000	    -44.37175146	   1518.97485715	  -4611.94222549	     27.83829676	     -1.82207815	  -1073.87099825	     36.07453627	      9.57954407	    -21.97996307
      4.60000000	    -35.32555102	    -24.12331912	     29.67339103	    -69.16640744	    795.12198755	     12.58846534	     11.03101660	    -45.00000000	     42.71122016	    -45.00000000	    -45.00000000	  -3694.51156828	  -2988.22165504	    146.53932908	    179.99999979	   1445.76966357	     51.86190015	     23.93740718	     15.02924626	     17.12747454	     39.37746059	    -39.76262720	    -45.00000000	    -43.74395489	   1519.41329386	  -4611.69679338	     27.88512230	     -1.60411892	  -1073.65979209	     35.15898721	      9.58000818	    -21.97269763
      4.61000000	    -35.91091774	    -23.49862425	     28.68112383	    -73.09841710	    797.14865780	     12.42165306	     11.03187671	    -45.00000000	     42.81637960	    -45.00000000	    -45.00000000	  -3694.60081686	  -2987.75748764	    146.35958257	    179.99999979	   1446.28648928	     51.68898501	     24.19947880	     14.66766941	     17.09838701	     39.56283274	    -40.01538633	    -45.00000000	    -43.12142364	   1519.86878126	  -4611.48207670	     27.81947364	     -1.54914672	  -1073.40981217	     34.23225906	      9.56169100	    -21.97034732
      4.62000000	    -36.45680099	    -22.82770732	     27.68367211	    -77.24089019	    799.26577240	     12.24018523	     11.06809379	    -45.00000000	     42.89675572	    -45.00000000	    -45.00000000	  -3694.74392952	  -2987.28356206	    146.14665264	    179.99999979	   1446.75353529	     51.56242906	     24.45305213	     14.30048906	     17.05458829	     39.66944157	    -40.19993945	    -45.00000000	    -42.66545246	   1520.30956648	  -4611.22343684	     27.88104025	     -1.46541485	  -1073.17571726	     33.20405801	      9.56671276	    -21.96600059
